# Blender v2.69 (sub 0) OBJ File: 'interior.blend'
# www.blender.org
g Cube
v 3.000000 0.847807 -0.126158
v -2.000000 0.847807 -0.126158
v 3.000000 1.000000 0.200000
v -2.000000 1.000000 0.200000
v 3.000000 0.800000 -0.300000
v -2.000000 0.800000 -0.300000
v -2.000000 -1.000000 -0.167241
v -2.000000 -0.300000 -0.217242
v -1.999999 -0.300000 -0.317242
v 0.600001 -0.300000 -0.317241
v 0.600000 -0.300000 -0.217242
v 0.000000 -1.000000 -0.167241
v -2.000000 -0.800000 -0.170095
v 0.600000 -0.800000 -0.170095
v 0.000000 -0.300000 -0.217242
v 0.000000 -0.800000 -0.170095
v -2.000000 -0.375000 -0.217242
v 0.600000 -0.375000 -0.217241
v 0.100000 -0.300000 -0.217242
v -0.500000 -1.000000 -0.167241
v -2.000000 -0.825000 -0.117241
v 0.600000 -0.825000 -0.117241
v -0.500000 -0.300000 -0.217242
v 0.100000 -0.800000 -0.170095
v -0.500000 -0.800000 -0.170095
v 0.000000 -0.375000 -0.217242
v 0.000000 -0.825000 -0.117241
v 0.100000 -0.825000 -0.117241
v 0.100000 -0.375000 -0.217242
v -0.500000 -0.375000 -0.217242
v -0.500000 -0.825000 -0.117241
v -2.000000 -0.320000 -0.117242
v 0.600000 -0.320000 -0.117242
v 0.000000 -0.320000 -0.117242
v -2.000000 -0.395000 -0.117242
v 0.600000 -0.395000 -0.117241
v 0.100000 -0.320000 -0.117242
v -0.500000 -0.320000 -0.117242
v 0.000000 -0.395000 -0.117242
v 0.100000 -0.395000 -0.117242
v -0.500000 -0.395000 -0.117242
v -0.750000 -1.000000 -0.167241
v -2.000000 -0.852500 -0.117241
v 0.600000 -0.852500 -0.117241
v -0.250000 -1.000000 -0.167241
v 0.000000 -0.852500 -0.117241
v 0.350000 -0.825000 -0.117241
v 0.050000 -0.825000 -0.117241
v 0.100000 -0.852500 -0.117241
v -0.250000 -0.825000 -0.117241
v -0.750000 -0.825000 -0.117241
v -0.500000 -0.852500 -0.117241
v 0.350000 -0.852500 -0.117241
v -0.250000 -0.852500 -0.117241
v 0.050000 -0.852500 -0.117241
v -0.750000 -0.852500 -0.117241
v -0.875000 -1.000000 -0.167241
v -2.000000 -0.856250 -0.167241
v 0.600000 -0.856250 -0.167241
v -0.125000 -1.000000 -0.167241
v 0.000000 -0.856250 -0.167241
v -0.625000 -1.000000 -0.167241
v -0.375000 -1.000000 -0.167241
v 0.100000 -0.856250 -0.167241
v -0.500000 -0.856250 -0.167241
v 0.475000 -0.852500 -0.117241
v 0.225000 -0.852500 -0.117241
v 0.350000 -0.856250 -0.167241
v -0.125000 -0.852500 -0.117241
v -0.375000 -0.852500 -0.117241
v -0.250000 -0.856250 -0.167241
v 0.075000 -0.852500 -0.117241
v 0.025000 -0.852500 -0.117241
v 0.050000 -0.856250 -0.167241
v -0.625000 -0.852500 -0.117241
v -0.875000 -0.852500 -0.117241
v -0.750000 -0.856250 -0.167241
v 0.475000 -0.856250 -0.167241
v -0.125000 -0.856250 -0.167241
v 0.075000 -0.856250 -0.167241
v -0.625000 -0.856250 -0.167241
v 0.225000 -0.856250 -0.167241
v -0.375000 -0.856250 -0.167241
v 0.025000 -0.856250 -0.167241
v -0.875000 -0.856250 -0.167241
v 0.700000 -0.300000 -0.217242
v 0.733190 -0.375000 -0.217241
v 0.700000 -0.320000 -0.117242
v 0.733190 -0.395000 -0.117241
v 0.800000 -0.300000 -0.217242
v 0.753190 -0.375000 -0.217241
v 0.800000 -0.320000 -0.117242
v 0.753190 -0.395000 -0.117241
v 0.850936 -0.340998 -0.217112
v 0.794126 -0.405998 -0.217112
v 0.850936 -0.360998 -0.119441
v 0.794126 -0.425998 -0.119441
v 0.876274 -0.410670 -0.215576
v 0.797222 -0.445670 -0.215576
v 0.876274 -0.430670 -0.121375
v 0.797222 -0.465670 -0.121375
v 0.868623 -0.797443 -0.171432
v 0.796058 -0.753438 -0.171432
v 0.868623 -0.796863 -0.118578
v 0.796058 -0.773438 -0.118578
v 0.827017 -0.833294 -0.170555
v 0.737891 -0.784009 -0.169619
v 0.827017 -0.831778 -0.117701
v 0.737891 -0.804009 -0.116765
v 0.777410 -0.840994 -0.170523
v 0.681845 -0.798444 -0.169588
v 0.777410 -0.841349 -0.117670
v 0.681845 -0.818444 -0.116734
v 4.000000 -0.300000 -0.317241
v 4.000000 -0.300000 -0.217242
v 0.600000 -0.300000 -0.267241
v 4.000000 -0.300000 -0.267241
v 0.800000 -0.300000 -0.317241
v 0.800000 -0.300000 -0.267241
v 0.600000 -0.300000 -0.242241
v 0.700001 -0.300000 -0.317241
v 0.600001 -0.300000 -0.292241
v 0.700000 -0.300000 -0.267241
v 0.800000 -0.300000 -0.292241
v 0.800000 -0.300000 -0.242241
v 0.700000 -0.300000 -0.292241
v 0.700000 -0.300000 -0.242241
v 0.876274 -0.420670 -0.168475
v 0.868623 -0.797153 -0.145005
v 0.871139 -0.609151 -0.193504
v 0.871139 -0.618861 -0.119977
v 0.871139 -0.614006 -0.156740
v 4.000000 -0.410670 -0.215576
v 4.000000 -0.609151 -0.193504
v 0.871139 -0.609151 -0.250107
v 4.000000 -0.609151 -0.250107
v 0.869392 -1.000000 -0.250107
v 4.000000 -1.000000 -0.250107
v 0.000000 -1.000000 -0.250107
v 0.000000 -0.609151 -0.250107
v 0.000000 -0.854576 -0.250107
v -1.999999 -0.347395 -0.944611
v 0.600001 -0.347395 -0.944611
v 4.000000 -0.347395 -0.944611
v 0.800000 -0.347395 -0.944611
v 0.700001 -0.347395 -0.944611
v -1.999999 -0.979158 -3.764598
v 0.600001 -0.979158 -3.764598
v 4.000000 -0.979158 -3.764598
v 0.800000 -0.979158 -3.764598
v 0.700001 -0.979158 -3.764598
v -3.000000 0.847807 0.573842
v -3.000000 1.000000 0.900000
v -3.000000 0.800000 0.400000
v -3.000000 -1.000000 0.532759
v -3.000000 -0.300000 0.482758
v -2.999999 -0.300000 0.382758
v -3.000000 -0.800000 0.529905
v -3.000000 -0.375000 0.482758
v -3.000000 -0.825000 0.582759
v -3.000000 -0.320000 0.582758
v -3.000000 -0.395000 0.582758
v -3.000000 -0.852500 0.582759
v -3.000000 -0.856250 0.532759
v -2.999999 -0.347395 -0.244611
v -2.999999 -0.979158 -3.064599
v 5.000000 -0.300000 0.382759
v 5.000000 -0.300000 0.482758
v 5.000000 -0.300000 0.432759
v 5.000000 -0.410670 0.484424
v 5.000000 -0.609151 0.506496
v 5.000000 -0.609151 0.449893
v 5.000000 -1.000000 0.449893
v 5.000000 -0.347395 -0.244611
v 5.000000 -0.979158 -3.064598
vt 0.011845 0.353278
vt 0.256003 0.353278
vt 0.011846 0.353278
vt 0.548993 0.316654
vt 0.548993 0.109120
vt 0.793151 0.316654
vt 0.256003 0.316654
vt 0.256004 0.109120
vt 0.500161 0.316654
vt 0.439122 0.081652
vt 0.439122 0.011457
vt 0.500161 0.081652
vt 0.548993 0.096912
vt 0.671072 0.096912
vt 0.524577 0.096912
vt 0.548993 0.306888
vt 0.500161 0.109120
vt 0.256003 0.306888
vt 0.011845 0.316654
vt 0.011845 0.306888
vt 0.011846 0.109120
vt 0.256004 0.096912
vt 0.378083 0.096912
vt 0.133925 0.096912
vt 0.194964 0.081652
vt 0.194964 0.011457
vt 0.256004 0.081652
vt 0.548993 0.343511
vt 0.793151 0.343511
vt 0.500161 0.343511
vt 0.500161 0.306888
vt 0.256003 0.343511
vt 0.011845 0.343511
vt 0.500161 0.353278
vt 0.548993 0.353278
vt 0.793151 0.353278
vt 0.841983 0.353278
vt 0.671072 0.083483
vt 0.732111 0.083483
vt 0.548993 0.083483
vt 0.610033 0.083483
vt 0.500161 0.096912
vt 0.439122 0.083483
vt 0.500161 0.083483
vt 0.317043 0.083483
vt 0.378083 0.083483
vt 0.317043 0.081652
vt 0.317043 0.011457
vt 0.378083 0.081652
vt 0.536785 0.083483
vt 0.512369 0.083483
vt 0.524577 0.083483
vt 0.133925 0.083483
vt 0.194964 0.083483
vt 0.072885 0.083483
vt 0.072885 0.081652
vt 0.072885 0.011457
vt 0.133925 0.081652
vt 0.732111 0.081652
vt 0.793151 0.083483
vt 0.671072 0.081652
vt 0.378083 0.011457
vt 0.536785 0.081652
vt 0.524577 0.081652
vt 0.256004 0.083483
vt 0.133925 0.011457
vt 0.610033 0.081652
vt 0.548993 0.081652
vt 0.256004 0.011457
vt 0.512369 0.081652
vt 0.011846 0.083483
vt 0.011846 0.081652
vt 0.011846 0.011457
vt 0.793151 0.306888
vt 0.858190 0.306888
vt 0.858190 0.316654
vt 0.867956 0.306888
vt 0.841983 0.343511
vt 0.890814 0.343512
vt 0.890814 0.353278
vt 0.867956 0.316654
vt 0.887946 0.291751
vt 0.887946 0.301517
vt 0.925552 0.199943
vt 0.925552 0.197573
vt 0.924324 0.110651
vt 0.889458 0.272378
vt 0.915687 0.323491
vt 0.915687 0.333258
vt 0.889458 0.282145
vt 0.904007 0.092862
vt 0.904007 0.093602
vt 0.888889 0.122090
vt 0.928060 0.289469
vt 0.888889 0.131857
vt 0.925552 0.202314
vt 0.924324 0.110368
vt 0.879783 0.089102
vt 0.860485 0.107162
vt 0.860485 0.116928
vt 0.833117 0.109879
vt 0.879783 0.088928
vt 0.833117 0.100113
vt 0.793151 0.096912
vt 0.793151 0.081652
vt 0.928060 0.299236
vt 0.988477 0.353278
vt 0.988478 0.353278
vt 0.924324 0.110510
vt 0.928060 0.294353
vt 0.988477 0.299236
vt 0.988477 0.202314
vt 0.924699 0.011457
vt 0.500161 0.202314
vt 0.500161 0.011457
vt 0.500161 0.082470
vt 0.011846 0.096912
vt 0.000000 0.000000
vt 0.988477 0.011457
vt 0.793151 0.109120
vt 0.011845 0.913770
vt 0.988477 0.913770
vt 0.011845 0.988089
vt 0.988477 0.890425
vt 0.011845 0.890425
vt 0.988477 0.988089
vn 0.000000 1.000000 0.000000
vn -0.000000 0.110256 0.993903
vn -0.000000 0.000000 1.000000
vn 0.000000 0.903976 0.427583
vn -0.000000 0.903975 0.427585
vn 0.000000 -0.980581 -0.196115
vn -0.000001 0.110256 0.993903
vn 0.000000 -0.980581 -0.196114
vn 0.000000 0.903976 0.427584
vn -0.000000 0.000001 1.000000
vn -0.000000 0.000002 1.000000
vn -0.000000 0.980581 0.196115
vn -0.000001 0.980581 0.196115
vn -0.151267 0.964583 -0.216096
vn -0.000001 0.000002 1.000000
vn 0.000000 -0.997199 0.074789
vn 0.000000 -0.997199 0.074790
vn -0.000000 -0.997199 0.074791
vn 0.000001 -0.980581 -0.196115
vn 0.000000 -0.000001 -1.000000
vn 0.000008 -0.980581 -0.196115
vn -0.601567 -0.783310 -0.156661
vn 0.036452 -0.022750 0.999076
vn 0.002151 -0.001344 -0.999997
vn 0.999898 -0.014143 -0.001868
vn -0.996903 -0.077037 -0.015776
vn 0.051097 -0.044658 0.997695
vn 0.040610 -0.035495 -0.998544
vn 0.642937 -0.765605 0.021950
vn -0.999992 0.003790 0.000805
vn -0.003329 0.007522 0.999966
vn -0.069872 -0.115219 -0.990880
vn 0.153344 -0.987767 0.028319
vn 0.011849 0.036703 0.999256
vn -0.016686 -0.027513 -0.999482
vn -0.406788 -0.913502 -0.006147
vn 0.004406 -0.019543 0.999799
vn -0.003719 0.012256 -0.999918
vn -0.076883 0.932511 0.352862
vn 0.002414 0.000002 0.999997
vn 0.086808 -0.993435 0.074506
vn 0.027761 0.040840 0.998780
vn -0.000245 0.021954 0.999759
vn 0.000000 1.000000 -0.000003
vn 0.000000 1.000000 0.000001
vn 0.000000 0.003164 0.999995
vn 0.999902 -0.013849 -0.001829
vn 0.999622 -0.026897 -0.005711
vn 0.999610 -0.027320 -0.005800
vn 0.000000 0.110523 0.993874
vn 0.000000 0.015051 0.999887
vn 0.000000 -1.000000 0.000000
vn 1.000000 0.000000 -0.000002
vn 0.000000 0.997159 -0.075330
vn 0.000000 0.997159 -0.075331
vn 0.000000 0.975812 -0.218611
vn 0.000000 0.975812 -0.218612
vn -1.000000 0.000000 0.000000
vn -0.052658 0.995775 -0.075226
vn 0.052281 -0.995836 0.074687
vn 0.573461 0.000000 0.819232
vn 0.136005 0.971469 0.194293
vn 0.573462 0.000000 0.819232
vn -0.136005 -0.971469 -0.194293
vn 0.286740 0.866016 0.409630
vn 0.571109 0.090508 0.815870
vn 0.573462 0.000001 0.819232
vn -0.573462 -0.000003 -0.819232
vn 0.151267 0.964583 -0.216096
vn 0.052658 0.995775 -0.075226
vn -0.573462 0.000000 0.819232
vn -0.573419 0.012336 0.819170
vn -0.571098 0.090724 0.815853
vn 0.000000 1.000000 -0.000001
vn -0.000000 0.903977 0.427580
vn -0.000000 0.903977 0.427582
vn -0.000000 0.980581 0.196114
vn -0.000002 0.980581 0.196114
vn 0.000000 -0.997200 0.074788
vn 0.000000 -0.997199 0.074788
vn 0.000007 -0.980581 -0.196114
vn 0.000002 -0.000003 -1.000000
vn -0.595468 -0.787048 -0.161162
vn 0.025335 -0.022141 0.999434
vn 0.001494 -0.001307 -0.999998
vn 0.999906 -0.013723 0.000151
vn -0.996779 -0.078449 -0.016655
vn 0.010585 -0.023905 0.999658
vn 0.008405 -0.018987 -0.999784
vn 0.652838 -0.757452 0.008310
vn 0.652840 -0.757450 0.008310
vn -0.999991 0.004000 0.001514
vn 0.002931 0.009077 0.999955
vn -0.002561 0.007893 0.999966
vn 0.062839 -0.141931 -0.987880
vn -0.083679 -0.107996 -0.990623
vn 0.189437 -0.981871 -0.006607
vn 0.013361 0.009198 0.999868
vn -0.014633 -0.007482 -0.999865
vn -0.221956 -0.911951 -0.345081
vn 0.005341 -0.018553 0.999814
vn -0.003001 0.015244 -0.999879
vn -0.019830 0.903799 0.427498
vn -0.002191 -0.049934 0.998750
vn 0.062711 -0.998009 -0.006712
vn -0.008305 0.112823 0.993580
vn -0.000001 0.023564 0.999722
vn 0.085834 0.101136 0.991163
vn -0.035669 0.140647 0.989417
vn -0.043818 0.142005 0.988896
vn -0.000001 1.000000 -0.000007
vn -0.000000 1.000000 -0.000004
vn -0.000001 1.000000 -0.000002
vn 0.999911 -0.013341 0.000146
vn 0.999649 -0.026248 -0.003466
vn 0.999636 -0.026765 -0.003535
vn 0.573463 0.000011 0.819232
vn 0.136005 0.971470 0.194292
vn 0.573462 0.000003 0.819232
vn -0.136005 -0.971470 -0.194292
vn 0.286740 0.866017 0.409627
vn 0.571109 0.090506 0.815870
vn 0.573462 -0.000001 0.819232
vn -0.573462 0.000000 -0.819232
vn -0.573418 0.012329 0.819170
vn -0.571097 0.090726 0.815853
vn 0.109287 -0.938047 0.328776
vn 0.000000 -0.938519 0.345227
vn 0.164604 -0.893837 0.417087
vn 0.000000 -0.964205 0.265158
vn -0.000001 0.980581 0.196113
vn -0.000002 0.980581 0.196113
vn 0.339543 0.922325 0.184462
vn 0.314921 0.930463 0.187252
vn 0.822431 0.557352 0.113866
vn 0.789284 0.601547 0.123177
vn 0.937382 0.341019 0.070856
vn -0.433120 0.843000 0.318995
vn -0.433120 0.843001 0.318993
vn -0.326189 0.884125 0.334551
vn -0.344084 0.878171 0.332298
vn -0.234011 0.909311 0.344082
vn 0.070610 -0.961799 0.264495
vn 0.252681 -0.897692 0.360973
vn 0.283825 -0.868931 0.405465
vn 0.000000 -0.906198 0.422854
vn 0.937985 0.339117 0.071999
vn 0.937985 0.339117 0.071998
vn -0.234011 0.909310 0.344084
vn 0.182493 -0.948014 0.260704
s off
f 8/1/1 23/2/1 9/3/1
f 29/4/2 24/5/2 18/6/2
f 30/7/2 25/8/2 26/9/2
f 79/10/3 60/11/3 61/12/3
f 24/5/4 28/13/4 47/14/4
f 24/5/5 48/15/5 28/13/5
f 29/4/6 18/6/6 40/16/6
f 26/9/6 29/4/6 40/16/6
f 26/9/7 16/17/7 29/4/7
f 30/7/6 26/9/6 41/18/6
f 17/19/8 30/7/8 35/20/8
f 17/19/2 13/21/2 30/7/2
f 25/8/9 31/22/9 50/23/9
f 25/8/9 51/24/9 31/22/9
f 81/25/3 62/26/3 65/27/3
f 37/28/10 40/16/10 33/29/10
f 34/30/10 39/31/10 37/28/10
f 38/32/10 41/18/10 34/30/10
f 32/33/11 35/20/11 38/32/11
f 15/34/12 23/2/12 34/30/12
f 19/35/12 15/34/12 37/28/12
f 23/2/12 8/1/12 38/32/12
f 11/36/12 19/35/12 33/29/12
f 11/36/13 33/29/13 86/37/13
f 142/3/14 147/3/14 165/3/14
f 47/14/11 53/38/11 66/39/11
f 28/13/11 49/40/11 67/41/11
f 27/42/11 69/43/11 46/44/11
f 50/23/11 70/45/11 54/46/11
f 83/47/3 63/48/3 71/49/3
f 28/13/11 72/50/11 49/40/11
f 48/15/15 73/51/15 55/52/15
f 51/24/11 56/53/11 75/54/11
f 51/24/11 76/55/11 56/53/11
f 85/56/3 57/57/3 77/58/3
f 66/39/16 78/59/16 44/60/16
f 53/38/16 68/61/16 66/39/16
f 69/43/16 79/10/16 46/44/16
f 54/46/16 71/49/16 69/43/16
f 71/49/3 45/62/3 79/10/3
f 72/50/17 80/63/17 49/40/17
f 55/52/18 74/64/18 72/50/18
f 75/54/16 81/25/16 52/65/16
f 56/53/16 77/58/16 75/54/16
f 77/58/3 42/66/3 81/25/3
f 67/41/16 82/67/16 53/38/16
f 49/40/16 64/68/16 67/41/16
f 70/45/16 83/47/16 54/46/16
f 52/65/16 65/27/16 70/45/16
f 65/27/3 20/69/3 83/47/3
f 73/51/17 84/70/17 55/52/17
f 46/44/18 61/12/18 73/51/18
f 76/55/16 85/56/16 56/53/16
f 43/71/18 58/72/18 76/55/18
f 58/72/3 7/73/3 85/56/3
f 36/74/19 18/6/19 89/75/19
f 33/29/10 36/74/10 89/75/10
f 18/6/20 11/36/20 87/76/20
f 89/75/21 87/76/21 93/77/21
f 88/78/10 89/75/10 92/79/10
f 87/76/20 86/37/20 90/80/20
f 93/77/22 91/81/22 97/82/22
f 92/79/23 93/77/23 97/82/23
f 91/81/24 90/80/24 95/83/24
f 132/84/25 131/85/25 104/86/25
f 97/82/26 95/83/26 101/87/26
f 96/88/27 97/82/27 101/87/27
f 95/83/28 94/89/28 99/90/28
f 106/91/29 104/86/29 108/92/29
f 101/87/30 99/90/30 105/93/30
f 100/94/31 101/87/31 131/85/31
f 103/95/32 130/96/32 102/97/32
f 106/91/33 108/92/33 110/98/33
f 104/86/34 105/93/34 109/99/34
f 103/95/35 102/97/35 107/100/35
f 111/101/36 110/98/36 112/102/36
f 108/92/37 109/99/37 112/102/37
f 107/100/38 106/91/38 111/101/38
f 113/103/39 111/101/39 22/104/39
f 44/60/40 112/102/40 22/104/40
f 59/105/41 110/98/41 44/60/41
f 91/81/42 99/90/42 95/83/42
f 98/106/43 115/107/43 94/89/43
f 114/108/1 118/80/1 117/107/1
f 126/37/1 123/37/1 124/80/1
f 127/37/44 86/37/44 125/80/44
f 121/37/1 126/37/1 118/80/1
f 10/36/1 122/36/1 121/37/1
f 122/36/1 116/36/1 126/37/1
f 123/37/1 127/37/1 119/80/1
f 116/36/1 120/36/1 123/37/1
f 117/107/45 90/80/45 115/107/45
f 90/80/46 94/89/46 115/107/46
f 120/36/1 11/36/1 127/37/1
f 130/96/47 132/84/47 129/109/47
f 98/106/48 128/110/48 132/84/48
f 128/110/49 100/94/49 131/85/49
f 98/106/50 130/96/50 133/111/50
f 98/106/51 133/111/51 115/107/51
f 134/112/52 130/96/52 136/112/52
f 136/112/3 135/96/3 137/113/3
f 137/113/3 135/96/3 140/114/3
f 12/115/53 139/115/53 141/116/53
f 121/37/54 118/80/54 146/37/54
f 118/80/55 114/108/55 145/80/55
f 10/36/55 121/37/55 143/36/55
f 9/3/55 10/36/55 142/3/55
f 146/37/56 145/80/56 151/37/56
f 145/80/57 144/108/57 150/80/57
f 143/36/57 146/37/57 148/36/57
f 142/3/57 143/36/57 147/3/57
f 156/1/58 159/19/58 162/20/58
f 9/3/59 142/3/59 157/3/59
f 58/72/60 43/71/60 163/71/60
f 43/71/61 21/117/61 163/71/61
f 32/33/62 8/1/62 161/33/62
f 35/20/63 32/33/63 162/20/63
f 17/19/64 35/20/64 162/20/64
f 21/117/65 13/21/65 160/117/65
f 13/21/66 17/19/66 158/21/66
f 7/73/67 58/72/67 155/73/67
f 8/1/1 9/3/1 156/1/1
f 8/118/68 17/19/68 156/1/68
f 149/108/69 144/108/69 174/108/69
f 144/108/70 114/108/70 167/108/70
f 136/112/71 138/119/71 172/112/71
f 134/112/52 136/112/52 171/112/52
f 115/107/72 133/111/72 170/111/72
f 133/111/73 134/112/73 171/112/73
f 114/108/1 117/107/1 169/107/1
f 117/107/1 115/107/1 168/107/1
f 9/3/1 23/2/1 10/36/1
f 23/2/74 15/34/74 10/36/74
f 19/35/45 11/36/45 120/36/45
f 19/35/74 120/36/74 116/36/74
f 19/35/45 116/36/45 122/36/45
f 15/34/1 19/35/1 10/36/1
f 19/35/74 122/36/74 10/36/74
f 24/5/2 14/120/2 18/6/2
f 25/8/2 16/17/2 26/9/2
f 60/11/3 12/115/3 61/12/3
f 14/120/4 24/5/4 22/104/4
f 24/5/4 47/14/4 22/104/4
f 16/17/75 27/42/75 24/5/75
f 27/42/5 48/15/5 24/5/5
f 18/6/6 36/74/6 40/16/6
f 39/31/6 26/9/6 40/16/6
f 16/17/2 24/5/2 29/4/2
f 26/9/6 39/31/6 41/18/6
f 30/7/8 41/18/8 35/20/8
f 13/21/2 25/8/2 30/7/2
f 16/17/9 25/8/9 27/42/9
f 25/8/4 50/23/4 27/42/4
f 13/21/76 21/117/76 25/8/76
f 21/117/4 51/24/4 25/8/4
f 62/26/3 20/69/3 65/27/3
f 40/16/10 36/74/10 33/29/10
f 39/31/10 40/16/10 37/28/10
f 41/18/10 39/31/10 34/30/10
f 35/20/10 41/18/10 38/32/10
f 23/2/12 38/32/12 34/30/12
f 15/34/12 34/30/12 37/28/12
f 8/1/12 32/33/12 38/32/12
f 19/35/77 37/28/77 33/29/77
f 33/29/78 88/78/78 86/37/78
f 147/3/14 166/3/14 165/3/14
f 22/104/11 47/14/11 44/60/11
f 47/14/11 66/39/11 44/60/11
f 47/14/11 28/13/11 53/38/11
f 28/13/11 67/41/11 53/38/11
f 50/23/11 54/46/11 27/42/11
f 54/46/11 69/43/11 27/42/11
f 31/22/11 52/65/11 50/23/11
f 52/65/11 70/45/11 50/23/11
f 63/48/3 45/62/3 71/49/3
f 48/15/11 55/52/11 28/13/11
f 55/52/15 72/50/15 28/13/15
f 27/42/15 46/44/15 48/15/15
f 46/44/11 73/51/11 48/15/11
f 31/22/11 51/24/11 52/65/11
f 51/24/11 75/54/11 52/65/11
f 21/117/11 43/71/11 51/24/11
f 43/71/11 76/55/11 51/24/11
f 57/57/3 42/66/3 77/58/3
f 78/59/16 59/105/16 44/60/16
f 68/61/16 78/59/16 66/39/16
f 79/10/16 61/12/16 46/44/16
f 71/49/79 79/10/79 69/43/79
f 45/62/3 60/11/3 79/10/3
f 80/63/17 64/68/17 49/40/17
f 74/64/80 80/63/80 72/50/80
f 81/25/16 65/27/16 52/65/16
f 77/58/16 81/25/16 75/54/16
f 42/66/3 62/26/3 81/25/3
f 82/67/16 68/61/16 53/38/16
f 64/68/16 82/67/16 67/41/16
f 83/47/16 71/49/16 54/46/16
f 65/27/16 83/47/16 70/45/16
f 20/69/3 63/48/3 83/47/3
f 84/70/17 74/64/17 55/52/17
f 61/12/18 84/70/18 73/51/18
f 85/56/16 77/58/16 56/53/16
f 58/72/16 85/56/16 76/55/16
f 7/73/3 57/57/3 85/56/3
f 18/6/19 87/76/19 89/75/19
f 88/78/10 33/29/10 89/75/10
f 11/36/20 86/37/20 87/76/20
f 87/76/81 91/81/81 93/77/81
f 89/75/15 93/77/15 92/79/15
f 91/81/82 87/76/82 90/80/82
f 91/81/83 95/83/83 97/82/83
f 96/88/84 92/79/84 97/82/84
f 90/80/85 94/89/85 95/83/85
f 129/109/86 132/84/86 104/86/86
f 95/83/87 99/90/87 101/87/87
f 100/94/88 96/88/88 101/87/88
f 94/89/89 98/106/89 99/90/89
f 102/97/90 129/109/90 106/91/90
f 129/109/91 104/86/91 106/91/91
f 99/90/92 103/95/92 105/93/92
f 101/87/93 105/93/93 104/86/93
f 131/85/94 101/87/94 104/86/94
f 99/90/95 98/106/95 103/95/95
f 98/106/96 130/96/96 103/95/96
f 108/92/97 112/102/97 110/98/97
f 108/92/98 104/86/98 109/99/98
f 102/97/99 106/91/99 107/100/99
f 113/103/100 111/101/100 112/102/100
f 109/99/101 113/103/101 112/102/101
f 106/91/102 110/98/102 111/101/102
f 111/101/103 14/120/103 22/104/103
f 112/102/104 113/103/104 22/104/104
f 110/98/105 112/102/105 44/60/105
f 18/6/2 14/120/2 87/76/2
f 14/120/106 111/101/106 87/76/106
f 87/76/107 99/90/107 91/81/107
f 87/76/108 111/101/108 99/90/108
f 111/101/109 107/100/109 99/90/109
f 107/100/110 103/95/110 99/90/110
f 118/80/1 124/80/1 117/107/1
f 124/80/74 119/80/74 117/107/74
f 123/37/1 119/80/1 124/80/1
f 86/37/111 90/80/111 125/80/111
f 126/37/1 124/80/1 118/80/1
f 122/36/1 126/37/1 121/37/1
f 116/36/1 123/37/1 126/37/1
f 127/37/1 125/80/1 119/80/1
f 120/36/1 127/37/1 123/37/1
f 119/80/74 125/80/74 117/107/74
f 125/80/112 90/80/112 117/107/112
f 11/36/113 86/37/113 127/37/113
f 102/97/114 130/96/114 129/109/114
f 130/96/115 98/106/115 132/84/115
f 132/84/116 128/110/116 131/85/116
f 130/96/50 134/112/50 133/111/50
f 130/96/52 135/96/52 136/112/52
f 138/119/3 136/112/3 137/113/3
f 139/115/3 137/113/3 141/116/3
f 137/113/3 140/114/3 141/116/3
f 61/12/53 12/115/53 141/116/53
f 118/80/55 145/80/55 146/37/55
f 114/108/55 144/108/55 145/80/55
f 121/37/55 146/37/55 143/36/55
f 10/36/55 143/36/55 142/3/55
f 145/80/57 150/80/57 151/37/57
f 144/108/57 149/108/57 150/80/57
f 146/37/57 151/37/57 148/36/57
f 143/36/57 148/36/57 147/3/57
f 161/33/58 156/1/58 162/20/58
f 142/3/59 165/3/59 157/3/59
f 164/72/60 58/72/60 163/71/60
f 21/117/117 160/117/117 163/71/117
f 8/1/118 156/1/118 161/33/118
f 32/33/119 161/33/119 162/20/119
f 159/19/120 17/19/120 162/20/120
f 13/21/121 158/21/121 160/117/121
f 17/19/122 159/19/122 158/21/122
f 58/72/123 164/72/123 155/73/123
f 9/3/1 157/3/1 156/1/1
f 17/19/124 159/1/124 156/1/124
f 175/108/69 149/108/69 174/108/69
f 174/108/70 144/108/70 167/108/70
f 138/119/71 173/119/71 172/112/71
f 136/112/52 172/112/52 171/112/52
f 168/107/125 115/107/125 170/111/125
f 170/111/126 133/111/126 171/112/126
f 167/108/1 114/108/1 169/107/1
f 169/107/1 117/107/1 168/107/1
s 1
f 2/121/127 1/122/128 4/123/129
f 1/122/128 2/121/127 5/124/130
f 86/37/131 88/78/132 92/79/133
f 90/80/134 92/79/133 96/88/135
f 94/89/136 96/88/135 98/106/137
f 105/93/138 103/95/139 109/99/140
f 109/99/140 107/100/141 113/103/142
f 6/125/143 2/121/127 152/121/144
f 2/121/127 4/123/129 153/123/145
f 1/122/128 3/126/146 4/123/129
f 2/121/127 6/125/143 5/124/130
f 90/80/134 86/37/131 92/79/133
f 94/89/136 90/80/134 96/88/135
f 96/88/135 100/94/147 128/110/148
f 98/106/137 96/88/135 128/110/148
f 103/95/139 107/100/141 109/99/140
f 107/100/141 111/101/149 113/103/142
f 154/125/150 6/125/143 152/121/144
f 152/121/144 2/121/127 153/123/145
