# Blender v2.69 (sub 0) OBJ File: 'mirror.blend'
# www.blender.org
g Cube.001
v -0.405882 -0.140197 -0.008182
v 0.402941 -0.140197 -0.008182
v -0.361464 0.133464 -0.002630
v 0.357027 0.133464 -0.002630
v 0.737629 -0.140197 -0.008182
v 0.654337 0.133464 -0.002630
v -0.767345 -0.140197 -0.008182
v -0.682558 0.133464 -0.002630
v -0.251804 0.274014 0.000827
v 0.243677 0.274014 0.000827
v 0.341421 0.274050 -0.001092
v -0.365951 0.274050 -0.001092
v -0.380219 -0.216869 -0.009650
v 0.376414 -0.216869 -0.009650
v 0.689507 -0.216869 -0.009650
v -0.718359 -0.216869 -0.009650
vt 0.747104 0.713627
vt 0.269693 0.713627
vt 0.777612 0.156180
vt 0.240179 0.156180
vt 0.000000 0.156180
vt 0.257231 0.000000
vt 1.000000 0.156180
vt 0.056338 0.713627
vt 0.342558 0.999928
vt 0.944655 0.713627
vt 0.671787 0.999928
vt 0.759986 0.000000
vt 0.032549 0.000000
vt 0.266712 1.000000
vt 0.736735 1.000000
vt 0.968025 0.000000
vn 0.000000 -0.020284 0.999794
vn 0.000000 -0.019140 0.999817
vn 0.000000 -0.024592 0.999698
vn -0.016800 0.026901 0.999497
vn 0.019612 0.032722 0.999272
s off
f 4/1/1 3/2/1 2/3/1
f 1/4/2 7/5/2 13/6/2
f 4/1/1 2/3/1 5/7/1
f 8/8/3 3/2/3 9/9/3
f 1/4/1 3/2/1 7/5/1
f 4/1/3 6/10/3 10/11/3
f 3/2/3 4/1/3 9/9/3
f 5/7/2 2/3/2 14/12/2
f 2/3/2 1/4/2 13/6/2
f 3/2/1 1/4/1 2/3/1
f 7/5/2 16/13/2 13/6/2
f 6/10/1 4/1/1 5/7/1
f 12/14/4 8/8/4 9/9/4
f 3/2/1 8/8/1 7/5/1
f 6/10/5 11/15/5 10/11/5
f 4/1/3 10/11/3 9/9/3
f 15/16/2 5/7/2 14/12/2
f 14/12/2 2/3/2 13/6/2
