# Blender v2.69 (sub 0) OBJ File: 'truck.blend'
# www.blender.org
g Cube
v 0.650000 0.155115 -0.304345
v -0.650000 0.155115 -0.304345
v -0.649999 0.155115 -2.304346
v 0.650001 0.155115 -2.304345
v 0.650000 1.455115 -0.304345
v -0.650001 1.455115 -0.304346
v -0.649999 1.455115 -2.304346
v 0.650000 1.455115 -2.304345
v 0.483516 0.162796 -0.304345
v 0.483516 0.162796 0.716716
v -0.483516 0.162796 0.716715
v -0.483516 0.162796 -0.304345
v 0.483516 0.802418 -0.304345
v 0.483516 0.802418 0.716716
v -0.483516 0.802418 0.716715
v -0.483516 0.802418 -0.304345
v 0.442060 1.184396 -0.304345
v 0.442060 1.184396 0.675260
v -0.442060 1.184396 0.675260
v -0.442060 1.184396 -0.304345
v -0.261585 1.222265 -0.107119
v -0.261585 1.222265 -0.305995
v 0.237851 1.222265 -0.305995
v 0.237851 1.222265 -0.107119
v -0.261585 1.421140 -0.107119
v -0.261585 1.421140 -0.305995
v 0.237851 1.421140 -0.305995
v 0.237851 1.421140 -0.107119
v -0.754484 0.872083 0.675771
v -0.754484 0.872083 0.639719
v -0.619355 0.872083 0.639719
v -0.619355 0.872083 0.675771
v -0.754484 1.153558 0.675771
v -0.754484 1.153558 0.639719
v -0.619355 1.153558 0.639719
v -0.619355 1.153558 0.675771
v 0.294591 1.174867 0.024177
v 0.294591 1.424867 0.024177
v 0.312269 1.174867 0.031500
v 0.312269 1.424867 0.031500
v 0.319591 1.174867 0.049177
v 0.319591 1.424867 0.049177
v 0.312269 1.174867 0.066855
v 0.312269 1.424867 0.066855
v 0.294591 1.174867 0.074177
v 0.294591 1.424867 0.074177
v 0.276914 1.174867 0.066855
v 0.276914 1.424867 0.066855
v 0.269591 1.174867 0.049177
v 0.269591 1.424867 0.049177
v 0.276914 1.174867 0.031500
v 0.276914 1.424867 0.031500
v -0.619355 0.872083 0.639719
v -0.619355 0.872083 0.675771
v -0.619355 1.153558 0.639719
v -0.619355 1.153558 0.675771
v -0.608638 1.117677 0.651249
v -0.608638 1.117677 0.668707
v -0.608638 1.140163 0.651249
v -0.608638 1.140163 0.668707
v -0.434490 1.117677 0.651249
v -0.434490 1.117677 0.668707
v -0.434490 1.140163 0.651249
v -0.434490 1.140163 0.668707
v 0.284399 1.563116 0.038985
v 0.280177 1.563116 0.049177
v 0.284399 1.563116 0.059369
v 0.294591 1.563116 0.063591
v 0.304783 1.563116 0.059369
v 0.309005 1.563116 0.049177
v 0.294591 1.563116 0.034763
v 0.304783 1.563116 0.038985
v 0.306886 1.440942 0.036883
v 0.294591 1.440942 0.031790
v 0.294591 1.424867 0.024177
v 0.312269 1.424867 0.031500
v 0.319591 1.424867 0.049177
v 0.312269 1.424867 0.066855
v 0.294591 1.424867 0.074177
v 0.276914 1.424867 0.066855
v 0.269591 1.424867 0.049177
v 0.276914 1.424867 0.031500
v 0.311979 1.440942 0.049177
v 0.306886 1.440942 0.061472
v 0.294591 1.440942 0.066565
v 0.282297 1.440942 0.061472
v 0.277204 1.440942 0.049177
v 0.282297 1.440942 0.036883
v 0.753528 0.872083 0.675771
v 0.753528 0.872083 0.639719
v 0.618399 0.872083 0.639719
v 0.618399 0.872083 0.675771
v 0.753528 1.153558 0.675771
v 0.753528 1.153558 0.639719
v 0.618399 1.153558 0.639719
v 0.618399 1.153558 0.675771
v 0.618399 0.872083 0.639719
v 0.618399 0.872083 0.675771
v 0.618399 1.153558 0.639719
v 0.618399 1.153558 0.675771
v 0.607682 1.117677 0.651249
v 0.607682 1.117677 0.668707
v 0.607682 1.140163 0.651249
v 0.607682 1.140163 0.668707
v 0.433534 1.117677 0.651249
v 0.433534 1.117677 0.668707
v 0.433534 1.140163 0.651249
v 0.433534 1.140163 0.668707
vt 0.398309 0.624871
vt 0.350591 0.437791
vt 0.398310 0.252257
vt 0.422972 0.651683
vt 0.422972 0.253591
vt 0.681732 0.651683
vt 0.338708 0.547276
vt 0.025695 0.624871
vt 0.721290 0.254971
vt 0.978027 0.254972
vt 0.721290 0.649951
vt 0.383771 0.652227
vt 0.383771 0.816716
vt 0.219282 0.652227
vt 0.981104 0.650972
vt 0.722344 0.650972
vt 0.981104 0.252880
vt 0.851187 0.650972
vt 0.851187 0.854211
vt 0.723872 0.650972
vt 0.073414 0.437791
vt 0.350591 0.254458
vt 0.723872 0.854211
vt 0.640342 0.651683
vt 0.640342 0.846670
vt 0.464361 0.651683
vt 0.927218 0.650972
vt 0.085296 0.547276
vt 0.025695 0.252257
vt 0.073414 0.254458
vt 0.497217 0.979245
vt 0.418995 0.979245
vt 0.497217 0.901024
vt 0.697692 0.977378
vt 0.632971 0.977378
vt 0.697692 0.900938
vt 0.698586 0.977680
vt 0.418900 0.977680
vt 0.698586 0.901183
vt 0.699136 0.900093
vt 0.699136 0.978069
vt 0.419308 0.900093
vt 0.043566 0.937780
vt 0.043566 0.777921
vt 0.200839 0.939003
vt 0.126302 0.939003
vt 0.200839 0.778949
vt 0.118685 0.937780
vt 0.118685 0.777921
vt 0.442013 0.743380
vt 0.442013 0.824737
vt 0.447766 0.743380
vt 0.447766 0.824737
vt 0.450149 0.743380
vt 0.450149 0.824737
vt 0.436260 0.743380
vt 0.436260 0.824737
vt 0.433877 0.743380
vt 0.433877 0.824737
vt 0.236908 0.909460
vt 0.254516 0.914714
vt 0.327378 0.914714
vt 0.250033 0.929727
vt 0.254516 0.924122
vt 0.327378 0.924122
vt 0.267439 0.927735
vt 0.267439 0.922933
vt 0.315150 0.926914
vt 0.261161 0.916030
vt 0.261161 0.913170
vt 0.267439 0.918132
vt 0.267439 0.929723
vt 0.315150 0.928562
vt 0.261161 0.922933
vt 0.267439 0.916143
vt 0.315150 0.918953
vt 0.261161 0.929837
vt 0.315150 0.917304
vt 0.261161 0.932696
vt 0.315150 0.922933
vt 0.681732 0.253591
vt 0.978027 0.649951
vt 0.219282 0.816716
vt 0.722344 0.252880
vt 0.464361 0.846670
vt 0.927218 0.845959
vt 0.418995 0.901024
vt 0.632971 0.900938
vt 0.418900 0.901183
vt 0.419308 0.978069
vt 0.126302 0.778949
vn -0.000002 -0.000000 1.000000
vn 0.000000 1.000000 -0.000000
vn -0.000001 -0.000001 1.000000
vn -1.000000 -0.000000 -0.000000
vn 0.000001 -0.000000 -1.000000
vn 1.000000 0.000000 0.000000
vn -0.000000 0.000000 1.000000
vn -0.994162 0.107895 -0.000000
vn -0.000000 0.107896 0.994162
vn 0.994162 0.107895 0.000000
vn -0.000003 0.000000 1.000000
vn -0.000001 0.000000 1.000000
vn 0.000000 0.000000 -1.000000
vn 0.000000 -1.000000 0.000000
vn 0.382683 0.000000 -0.923880
vn 0.923880 0.000000 -0.382683
vn 0.923880 0.000000 0.382683
vn 0.382683 0.000000 0.923880
vn -0.382683 0.000000 0.923880
vn -0.923880 0.000000 0.382683
vn -0.382683 0.000000 -0.923880
vn -0.923880 0.000000 -0.382683
vn 0.999049 -0.043595 0.000000
vn 0.550375 0.000000 0.834918
vn 0.780864 0.624701 0.000000
vn 0.732458 0.000000 -0.680812
vn -0.382587 0.022480 0.923646
vn 0.846416 0.400823 0.350602
vn -0.923646 0.022478 0.382586
vn 0.350598 0.400822 0.846418
vn 0.923646 0.022482 0.382586
vn -0.350601 0.400827 0.846414
vn 0.923646 0.022482 -0.382586
vn -0.846418 0.400822 0.350598
vn -0.846417 0.400820 -0.350602
vn 0.350601 0.400826 -0.846415
vn 0.382587 0.022481 -0.923646
vn -0.350598 0.400823 -0.846417
vn 0.382586 0.022481 0.923646
vn 0.846417 0.400824 -0.350598
vn -0.923647 0.022478 -0.382586
vn -0.382587 0.022480 -0.923646
vn -0.999049 -0.043595 0.000000
vn -0.550375 0.000000 0.834918
vn -0.780863 0.624703 0.000000
vn -0.732482 0.000000 -0.680786
vn -0.000000 0.000002 1.000000
vn -1.000000 0.000000 -0.000001
vn -0.994162 0.107896 -0.000000
vn 0.000000 -1.000000 -0.000006
vn 0.999049 -0.043596 0.000000
vn 0.550407 0.000000 0.834897
vn 0.780863 0.624703 0.000000
vn 0.732487 0.000000 -0.680781
vn -0.382586 0.022479 0.923646
vn 0.846417 0.400823 0.350597
vn -0.923646 0.022478 0.382587
vn 0.350597 0.400820 0.846419
vn 0.923646 0.022482 0.382587
vn -0.350591 0.400816 0.846423
vn 0.923646 0.022482 -0.382587
vn -0.846417 0.400821 0.350601
vn -0.846417 0.400823 -0.350597
vn 0.350592 0.400814 -0.846424
vn 0.382586 0.022481 -0.923646
vn -0.350596 0.400820 -0.846419
vn 0.846418 0.400819 -0.350601
vn -0.923646 0.022478 -0.382587
vn -0.382586 0.022480 -0.923646
vn -0.550434 0.000000 0.834879
vn -0.780865 0.624699 0.000000
vn -0.732460 0.000000 -0.680811
s off
f 5/1/1 13/2/1 1/3/1
f 5/4/2 8/5/2 6/6/2
f 17/7/3 5/1/3 6/8/3
f 2/9/4 6/10/4 3/11/4
f 3/12/5 7/13/5 4/14/5
f 5/15/6 1/16/6 8/17/6
f 13/18/6 14/19/6 9/20/6
f 14/2/7 15/21/7 10/22/7
f 15/19/4 16/18/4 11/23/4
f 17/7/1 13/2/1 5/1/1
f 20/24/2 19/25/2 17/26/2
f 16/18/8 15/19/8 20/27/8
f 15/21/9 14/2/9 19/28/9
f 14/19/10 13/18/10 17/27/10
f 13/2/7 9/22/7 1/3/7
f 20/28/11 6/8/11 16/21/11
f 6/8/1 2/29/1 16/21/1
f 16/21/12 2/29/12 12/30/12
f 25/31/4 26/32/4 21/33/4
f 27/34/6 28/35/6 23/36/6
f 28/37/7 25/38/7 24/39/7
f 28/40/2 27/41/2 25/42/2
f 33/43/4 34/43/4 29/44/4
f 34/45/13 35/46/13 30/47/13
f 36/48/7 33/43/7 32/49/7
f 29/44/14 30/44/14 32/49/14
f 36/48/2 35/48/2 33/43/2
f 37/50/15 38/51/15 39/52/15
f 39/52/16 40/53/16 41/54/16
f 41/54/17 42/55/17 43/52/17
f 43/52/18 44/53/18 45/50/18
f 45/50/19 46/51/19 47/56/19
f 47/56/20 48/57/20 49/58/20
f 51/56/21 52/57/21 37/50/21
f 49/58/22 50/59/22 51/56/22
f 37/50/14 39/52/14 41/54/14
f 54/60/23 53/60/23 58/61/23
f 58/61/14 57/61/14 62/62/14
f 56/63/24 54/60/24 60/64/24
f 55/63/25 56/63/25 60/64/25
f 53/60/26 55/63/26 59/64/26
f 63/65/6 64/65/6 61/62/6
f 60/64/7 58/61/7 64/65/7
f 59/64/2 60/64/2 63/65/2
f 57/61/13 59/64/13 61/62/13
f 86/66/27 85/67/27 67/68/27
f 78/69/28 77/70/28 84/71/28
f 87/72/29 86/66/29 66/73/29
f 79/74/30 78/69/30 85/67/30
f 84/71/31 83/75/31 69/76/31
f 80/77/32 79/74/32 86/66/32
f 83/75/33 73/71/33 70/78/33
f 81/79/34 80/77/34 87/72/34
f 67/68/2 65/68/2 66/73/2
f 82/77/35 81/79/35 88/66/35
f 76/69/36 75/74/36 73/71/36
f 73/71/37 74/67/37 72/76/37
f 75/74/38 82/77/38 74/67/38
f 85/67/39 84/71/39 68/80/39
f 77/70/40 76/69/40 83/75/40
f 88/66/41 87/72/41 65/68/41
f 74/67/42 88/66/42 71/80/42
f 93/43/6 89/44/6 94/43/6
f 94/45/13 90/47/13 95/46/13
f 96/48/7 92/49/7 93/43/7
f 89/44/14 92/49/14 90/44/14
f 96/48/2 93/43/2 95/48/2
f 98/60/43 102/61/43 97/60/43
f 102/61/14 106/62/14 101/61/14
f 100/63/44 104/64/44 98/60/44
f 99/63/45 103/64/45 104/64/45
f 97/60/46 101/61/46 103/64/46
f 107/65/4 105/62/4 108/65/4
f 104/64/7 108/65/7 102/61/7
f 103/64/2 107/65/2 104/64/2
f 101/61/13 105/62/13 103/64/13
f 8/5/2 7/81/2 6/6/2
f 20/28/47 17/7/47 6/8/47
f 6/10/48 7/82/48 3/11/48
f 7/13/5 8/83/5 4/14/5
f 1/16/6 4/84/6 8/17/6
f 14/19/6 10/23/6 9/20/6
f 15/21/7 11/30/7 10/22/7
f 16/18/4 12/20/4 11/23/4
f 19/25/2 18/85/2 17/26/2
f 15/19/49 19/86/49 20/27/49
f 14/2/9 18/7/9 19/28/9
f 18/86/10 14/19/10 17/27/10
f 26/32/4 22/87/4 21/33/4
f 28/35/6 24/88/6 23/36/6
f 25/38/7 21/89/7 24/39/7
f 27/41/2 26/90/2 25/42/2
f 34/43/4 30/44/4 29/44/4
f 35/46/13 31/91/13 30/47/13
f 33/43/7 29/44/7 32/49/7
f 30/44/14 31/49/14 32/49/14
f 35/48/2 34/43/2 33/43/2
f 38/51/15 40/53/15 39/52/15
f 40/53/16 42/55/16 41/54/16
f 42/55/17 44/53/17 43/52/17
f 44/53/18 46/51/18 45/50/18
f 46/51/19 48/57/19 47/56/19
f 48/57/20 50/59/20 49/58/20
f 52/57/21 38/51/21 37/50/21
f 50/59/22 52/57/22 51/56/22
f 51/56/14 37/50/14 49/58/14
f 37/50/14 41/54/14 49/58/14
f 41/54/14 43/52/14 45/50/14
f 49/58/14 41/54/14 47/56/14
f 41/54/50 45/50/50 47/56/50
f 53/60/51 57/61/51 58/61/51
f 57/61/14 61/62/14 62/62/14
f 54/60/52 58/61/52 60/64/52
f 59/64/53 55/63/53 60/64/53
f 57/61/54 53/60/54 59/64/54
f 64/65/6 62/62/6 61/62/6
f 58/61/7 62/62/7 64/65/7
f 60/64/2 64/65/2 63/65/2
f 59/64/13 63/65/13 61/62/13
f 85/67/55 68/80/55 67/68/55
f 77/70/56 83/75/56 84/71/56
f 86/66/57 67/68/57 66/73/57
f 78/69/58 84/71/58 85/67/58
f 83/75/59 70/78/59 69/76/59
f 79/74/60 85/67/60 86/66/60
f 73/71/61 72/76/61 70/78/61
f 80/77/62 86/66/62 87/72/62
f 70/78/2 72/76/2 69/76/2
f 72/76/2 71/80/2 65/68/2
f 69/76/2 72/76/2 65/68/2
f 68/80/2 69/76/2 65/68/2
f 67/68/2 68/80/2 65/68/2
f 81/79/63 87/72/63 88/66/63
f 75/74/64 74/67/64 73/71/64
f 74/67/65 71/80/65 72/76/65
f 82/77/66 88/66/66 74/67/66
f 84/71/39 69/76/39 68/80/39
f 76/69/67 73/71/67 83/75/67
f 87/72/68 66/73/68 65/68/68
f 88/66/69 65/68/69 71/80/69
f 89/44/6 90/44/6 94/43/6
f 90/47/13 91/91/13 95/46/13
f 92/49/7 89/44/7 93/43/7
f 92/49/14 91/49/14 90/44/14
f 93/43/2 94/43/2 95/48/2
f 102/61/43 101/61/43 97/60/43
f 106/62/14 105/62/14 101/61/14
f 104/64/70 102/61/70 98/60/70
f 100/63/71 99/63/71 104/64/71
f 99/63/72 97/60/72 103/64/72
f 105/62/4 106/62/4 108/65/4
f 108/65/7 106/62/7 102/61/7
f 107/65/2 108/65/2 104/64/2
f 105/62/13 107/65/13 103/64/13
